# xmcd CD database file
#
# Track frame offsets:
#	150
#	24800
#	39857
#
# Disc length: 774 seconds
#
# Revision: 7
# Processed by: cddbd v1.5.2PL0 Copyright (c) Steve Scherf et al.
# Submitted via: CDex 1.70beta3
#
DISCID=11030403
DTITLE=B'z - OCEAN
DYEAR=2005
DGENRE=Rock
TTITLE0=OCEAN
TTITLE1=なりふりかまわず抱きしめて
TTITLE2=Dear my lovely pain
EXTD=YEAR: 2005
EXTT0=
EXTT1=
EXTT2=
PLAYORDER=
